 <svg  version="1.0" xmlns="http://www.w3.org/2000/svg"  width="1350.000000pt" height="681.000000pt" viewBox="0 0 1350.000000 681.000000"  preserveAspectRatio="xMidYMid meet">  <g transform="translate(0.000000,681.000000) scale(0.100000,-0.100000)" fill="#121212" stroke="none"> <path d="M6425 5978 c-3 -7 -12 -38 -20 -68 -9 -30 -20 -68 -25 -85 -30 -97 -41 -135 -54 -180 -26 -94 -44 -127 -64 -120 -24 7 -32 -26 -32 -135 0 -103 -7 -134 -33 -145 -19 -9 -22 -18 -22 -65 l0 -55 65 0 65 0 3 58 c3 58 8 63 49 58 7 -1 17 8 23 19 6 11 19 20 29 20 10 0 21 9 24 20 5 18 14 20 76 20 82 0 79 3 83 -115 l3 -70 75 0 75 0 -3 35 c-2 19 -8 39 -12 44 -5 5 1 17 14 27 23 18 26 44 11 114 -6 26 -5 28 7 13 8 -9 25 -18 38 -20 24 -3 25 -5 30 -113 l5 -110 94 -3 c56 -2 98 1 105 8 5 5 49 10 97 10 58 0 90 4 97 13 6 7 12 40 14 72 l3 60 75 5 75 5 3 31 3 31 -116 6 c-68 3 -122 10 -131 18 -9 7 -30 10 -57 6 -23 -3 -48 -3 -54 1 -11 7 -18 81 -29 330 l-5 122 60 0 c52 0 65 -4 91 -27 25 -24 31 -39 40 -103 6 -41 15 -94 21 -118 13 -61 11 -166 -3 -180 -22 -22 10 -32 100 -32 l82 0 0 92 c0 113 -26 309 -48 363 -26 63 -70 113 -119 135 -42 18 -64 20 -222 18 l-176 -3 -3 -188 c-2 -138 1 -193 10 -210 7 -12 15 -62 18 -112 l5 -90 83 -3 c114 -4 95 -22 -23 -22 -73 0 -94 3 -99 15 -3 9 -18 15 -36 15 -33 0 -38 11 -16 30 13 10 12 17 -6 48 -11 20 -28 46 -38 57 -9 11 -20 31 -23 45 -3 14 -13 48 -21 75 -21 69 -43 141 -60 200 -8 28 -20 66 -27 85 -7 19 -13 41 -15 48 -2 8 -27 12 -79 12 -51 0 -77 -4 -80 -12z m99 -314 c3 -9 6 -28 6 -44 0 -15 7 -47 15 -70 20 -56 19 -80 -5 -108 -16 -19 -27 -23 -62 -20 -42 3 -43 3 -40 37 2 19 8 46 14 60 5 14 14 50 18 80 12 70 39 104 54 65z m624 -340 c3 -19 -2 -22 -44 -26 -51 -4 -77 11 -67 38 4 11 18 14 57 12 43 -3 51 -6 54 -24z"/> <path d="M7444 5977 c-2 -7 -3 -111 -2 -232 l3 -220 30 -9 c17 -5 37 -11 45 -13 12 -4 12 -7 -4 -18 -10 -8 -23 -12 -27 -9 -29 18 -61 -43 -59 -111 2 -71 12 -163 20 -180 5 -11 10 -29 12 -40 3 -18 11 -20 73 -20 l70 0 3 38 c2 23 -3 48 -12 62 -21 31 -21 128 -2 145 8 6 16 26 18 43 l3 32 75 3 c94 3 120 9 120 27 0 21 19 29 68 26 50 -2 72 11 72 45 0 13 9 28 20 34 11 6 18 15 15 21 -4 5 -10 7 -14 4 -5 -2 -13 6 -19 20 -7 15 -21 25 -39 27 -41 4 -39 41 2 48 l30 5 -1 70 c0 90 -8 116 -40 149 -57 56 -100 66 -286 66 -127 0 -170 -3 -174 -13z m323 -161 c19 -22 23 -39 23 -88 0 -77 -16 -98 -75 -98 -29 0 -45 -5 -49 -15 -3 -8 -17 -15 -31 -15 l-25 0 0 118 c0 65 3 122 8 126 4 4 34 6 66 4 49 -4 63 -9 83 -32z"/> <path d="M5155 5835 c-49 -52 -92 -100 -94 -106 -7 -21 33 -127 53 -139 17 -11 35 5 180 149 89 89 166 160 171 160 6 -1 89 -83 185 -183 132 -137 178 -179 188 -172 10 7 13 35 10 113 l-3 103 -85 85 -85 85 -70 0 c-47 0 -78 -5 -91 -15 -25 -19 -34 -19 -34 0 0 12 -20 15 -117 15 l-118 -1 -90 -94z"/> <path d="M7964 5675 c-10 -25 5 -33 49 -28 91 12 100 43 11 43 -39 0 -56 -4 -60 -15z"/> <path d="M5066 5574 c-3 -9 -6 -61 -6 -116 l0 -101 97 -98 c91 -93 99 -99 137 -99 52 0 116 22 128 45 9 14 -19 46 -161 189 -94 95 -171 178 -171 184 0 17 -17 15 -24 -4z"/> <path d="M5612 5353 c-100 -99 -182 -183 -182 -186 0 -4 52 -7 116 -7 l116 0 85 83 c47 45 89 93 95 106 14 37 -1 124 -26 156 l-23 28 -181 -180z"/> <path d="M6627 4843 c-4 -3 -7 -95 -7 -203 l0 -197 46 -7 c26 -3 65 -6 88 -6 61 0 255 -46 323 -76 17 -8 36 -14 41 -14 5 0 61 -26 123 -58 201 -103 377 -236 496 -375 125 -146 262 -389 307 -547 38 -134 70 -340 70 -450 0 -132 -65 -434 -125 -575 -4 -11 -18 -45 -30 -75 -13 -30 -32 -71 -44 -90 -11 -19 -26 -46 -33 -60 -55 -114 -263 -351 -376 -427 -23 -16 -43 -30 -46 -34 -16 -18 -168 -100 -240 -130 -104 -44 -130 -53 -200 -72 -133 -37 -195 -47 -345 -61 -162 -15 -287 -11 -395 13 -148 33 -191 46 -245 71 -11 5 -42 18 -70 30 -65 28 -119 54 -125 61 -3 3 -34 23 -70 44 -82 49 -200 139 -265 202 -103 100 -274 343 -315 448 -13 33 -28 64 -32 69 -4 6 -8 17 -8 25 0 9 -6 28 -14 43 -8 15 -17 41 -21 59 -4 19 -11 40 -16 49 -11 20 -28 98 -41 185 -15 104 -5 458 15 520 8 28 23 77 32 110 9 33 23 74 31 92 8 17 14 35 14 41 0 29 133 298 160 322 3 3 18 25 35 50 38 58 237 257 295 295 25 17 47 33 50 36 12 14 184 111 272 154 97 47 97 47 91 78 -3 18 -11 46 -18 62 -7 17 -29 84 -50 150 -44 137 -50 148 -79 139 -46 -14 -357 -161 -366 -173 -3 -4 -23 -18 -45 -31 -22 -13 -42 -27 -45 -30 -3 -3 -25 -21 -50 -40 -138 -105 -261 -228 -370 -370 -19 -25 -43 -54 -52 -64 -35 -39 -143 -241 -198 -371 -74 -173 -66 -149 -103 -326 -8 -36 -17 -71 -21 -77 -8 -13 -30 -280 -29 -352 0 -70 22 -331 28 -341 4 -5 10 -36 16 -70 5 -33 14 -68 18 -77 5 -9 19 -51 31 -92 13 -41 27 -79 31 -84 5 -6 9 -16 9 -24 0 -7 9 -34 21 -60 11 -26 25 -58 31 -72 28 -68 50 -105 130 -227 49 -72 94 -137 101 -145 7 -7 35 -42 64 -78 66 -85 211 -223 294 -282 79 -57 261 -169 309 -191 94 -43 307 -117 336 -117 8 0 22 -4 32 -9 21 -12 147 -41 227 -53 275 -41 451 -34 730 30 44 10 180 55 235 79 144 61 270 125 381 193 27 16 52 30 55 30 23 0 326 289 397 380 28 36 54 67 57 70 32 27 152 248 210 385 5 11 18 40 28 65 18 41 38 99 64 187 39 133 74 436 65 559 -19 243 -25 303 -32 314 -4 7 -14 43 -22 79 -30 142 -33 154 -72 246 -5 11 -26 60 -46 109 -119 287 -442 667 -715 842 -106 67 -234 130 -345 169 -27 9 -59 21 -70 26 -11 5 -40 14 -65 20 -25 6 -72 18 -105 26 -57 14 -142 30 -280 53 -70 11 -139 13 -148 3z"/> <path d="M5895 3232 c-52 -4 -112 -46 -146 -102 -23 -38 -27 -56 -28 -120 0 -66 3 -80 27 -115 58 -84 164 -109 250 -60 36 21 44 22 49 9 12 -32 -62 -132 -123 -166 -16 -9 -54 -20 -82 -24 -57 -7 -78 -28 -67 -64 8 -25 38 -26 119 -3 105 29 164 77 211 172 47 93 56 283 16 356 -52 96 -110 126 -226 117z m96 -85 c45 -38 59 -70 61 -135 1 -48 -3 -66 -18 -83 -59 -65 -146 -66 -201 0 -18 21 -22 39 -23 92 0 65 1 68 41 108 49 49 97 55 140 18z"/> <path d="M6839 3232 c-62 -8 -130 -114 -129 -201 1 -31 29 -110 50 -137 61 -80 175 -68 232 24 20 31 23 50 23 127 0 96 -13 133 -58 166 -24 17 -77 27 -118 21z m62 -62 c53 -29 69 -168 26 -231 -30 -45 -73 -51 -107 -14 -23 24 -25 35 -25 117 0 86 1 91 28 114 31 26 48 29 78 14z"/> <path d="M7238 3228 c-9 -7 -26 -31 -38 -53 -11 -22 -25 -47 -30 -55 -23 -37 -100 -172 -100 -175 0 -2 -19 -36 -43 -77 -24 -40 -47 -80 -51 -88 -4 -8 -12 -24 -19 -35 -40 -66 -87 -154 -87 -163 0 -18 35 -14 53 6 9 10 27 38 40 62 13 25 34 61 46 80 11 19 24 42 28 50 4 8 26 48 50 88 24 41 43 75 43 77 0 2 19 36 43 77 24 40 46 80 50 88 4 8 16 29 27 45 29 44 33 53 26 70 -7 18 -17 19 -38 3z"/> <path d="M6300 3211 c-5 -11 -10 -37 -10 -59 0 -22 -7 -77 -16 -122 -8 -45 -13 -88 -10 -96 3 -9 24 -12 68 -11 123 3 198 -52 198 -143 0 -89 -71 -138 -184 -126 -117 13 -111 14 -114 -20 -3 -29 0 -32 49 -47 89 -29 187 -16 255 33 11 8 35 35 52 59 28 39 32 52 32 112 0 61 -3 72 -33 111 -44 57 -106 88 -179 88 l-58 0 0 53 c0 28 6 63 13 77 12 24 17 25 127 30 l115 5 0 35 0 35 -147 3 c-137 2 -148 1 -158 -17z"/> <path d="M7235 2961 c-33 -15 -71 -63 -90 -113 -42 -114 18 -248 123 -275 37 -9 107 30 138 77 25 37 27 50 27 129 -1 96 -13 130 -60 165 -29 21 -107 31 -138 17z m78 -52 c56 -26 77 -160 36 -229 -25 -41 -36 -50 -65 -50 -40 0 -66 43 -72 118 -6 85 10 137 46 157 33 17 27 17 55 4z"/> </g> </svg> 