<?xml version="1.0" encoding="UTF-8"?>
<!DOCTYPE svg PUBLIC "-//W3C//DTD SVG 1.1//EN" "http://www.w3.org/Graphics/SVG/1.1/DTD/svg11.dtd">
<svg xmlns="http://www.w3.org/2000/svg" version="1.1" width="3000px" height="3000px" style="shape-rendering:geometricPrecision; text-rendering:geometricPrecision; image-rendering:optimizeQuality; fill-rule:evenodd; clip-rule:evenodd" xmlns:xlink="http://www.w3.org/1999/xlink">
<g><path style="opacity:0.513" fill="#4c4c4c" d="M 1295.5,-0.5 C 1297.5,-0.5 1299.5,-0.5 1301.5,-0.5C 1304.99,12.458 1308.32,25.458 1311.5,38.5C 1361.9,51.688 1412.23,65.188 1462.5,79C 1466.42,93.172 1470.42,107.339 1474.5,121.5C 1508.18,87.9858 1542.01,54.6524 1576,21.5C 1575.46,14.0106 1573.96,6.67723 1571.5,-0.5C 1573.5,-0.5 1575.5,-0.5 1577.5,-0.5C 1580.13,7.01563 1581.96,14.6823 1583,22.5C 1547.67,57.8333 1512.33,93.1667 1477,128.5C 1484.69,161.246 1493.02,193.913 1502,226.5C 1502.67,228.5 1502.67,230.5 1502,232.5C 1465.5,269 1429,305.5 1392.5,342C 1342.42,329.478 1292.42,316.312 1242.5,302.5C 1241.83,302.667 1241.17,302.833 1240.5,303C 1211.97,331.702 1183.3,360.202 1154.5,388.5C 1152.83,387.5 1151.5,386.167 1150.5,384.5C 1178.99,355.173 1207.99,326.34 1237.5,298C 1224.28,250.304 1211.45,202.47 1199,154.5C 1198.63,153.584 1198.13,152.75 1197.5,152C 1149.73,138.932 1101.9,126.099 1054,113.5C 1053.17,113.667 1052.33,113.833 1051.5,114C 1016.67,148.833 981.833,183.667 947,218.5C 947.345,223.893 948.345,229.227 950,234.5C 961.812,278.1 973.312,321.767 984.5,365.5C 1028.02,376.546 1071.35,388.212 1114.5,400.5C 1114.5,402.5 1114.5,404.5 1114.5,406.5C 1069.61,394.402 1024.77,382.068 980,369.5C 965.865,318.625 952.532,267.625 940,216.5C 977.346,179.821 1014.68,143.154 1052,106.5C 1101.75,120.312 1151.58,133.478 1201.5,146C 1236.64,111.861 1271.47,77.3613 1306,42.5C 1302.68,28.2074 1299.18,13.8741 1295.5,-0.5 Z M 1468.5,125.5 C 1420.45,113.039 1372.45,100.372 1324.5,87.5C 1320.82,73.1259 1317.32,58.7926 1314,44.5C 1361.75,57.859 1409.58,71.0257 1457.5,84C 1461.67,97.6894 1465.34,111.523 1468.5,125.5 Z M 1307.5,48.5 C 1311.74,62.9447 1316.07,77.4447 1320.5,92C 1370.68,105.84 1420.85,119.673 1471,133.5C 1479.82,165.796 1488.16,198.129 1496,230.5C 1460.53,264.972 1425.36,299.805 1390.5,335C 1342.05,323.136 1293.71,310.469 1245.5,297C 1244.11,295.829 1243.27,294.329 1243,292.5C 1230.65,245.451 1218.15,198.451 1205.5,151.5C 1239.52,117.146 1273.52,82.8124 1307.5,48.5 Z"/></g>
<g><path style="opacity:0.42" fill="#4c4c4c" d="M 1917.5,-0.5 C 1920.5,-0.5 1923.5,-0.5 1926.5,-0.5C 1891.88,33.452 1857.55,67.7853 1823.5,102.5C 1835.17,145.862 1846.84,189.196 1858.5,232.5C 1856.17,232.5 1853.83,232.5 1851.5,232.5C 1841.32,192.439 1830.82,152.439 1820,112.5C 1818.35,107.935 1817.69,103.269 1818,98.5C 1851.67,65.9931 1884.84,32.9931 1917.5,-0.5 Z"/></g>
<g><path style="opacity:0.587" fill="#4b4c4b" d="M 1946.5,-0.5 C 1954.17,-0.5 1961.83,-0.5 1969.5,-0.5C 2006.34,9.79592 2043.34,19.9626 2080.5,30C 2084.07,42.4495 2087.57,54.9495 2091,67.5C 2093.75,64.2379 2096.92,61.5712 2100.5,59.5C 2143.55,71.0122 2186.55,82.6789 2229.5,94.5C 2235.64,79.4306 2246.64,73.9306 2262.5,78C 2277.22,87.3768 2280.05,99.5435 2271,114.5C 2267.38,118.561 2262.88,120.895 2257.5,121.5C 2268.51,163.858 2279.67,206.191 2291,248.5C 2340.02,262.395 2389.19,275.895 2438.5,289C 2439,289.5 2439.5,290 2440,290.5C 2452.69,339.254 2465.69,387.92 2479,436.5C 2516.03,447.05 2553.2,457.216 2590.5,467C 2591,467.5 2591.5,468 2592,468.5C 2602.06,508.065 2612.72,547.398 2624,586.5C 2669.53,540.639 2715.36,495.139 2761.5,450C 2749.9,446.468 2738.24,443.135 2726.5,440C 2713.46,394.026 2700.96,347.859 2689,301.5C 2688.02,297.071 2686.52,292.904 2684.5,289C 2635.98,275.911 2587.48,262.745 2539,249.5C 2538.05,249.095 2537.39,248.428 2537,247.5C 2524.82,201.123 2512.49,154.79 2500,108.5C 2498.52,104.246 2497.85,99.9131 2498,95.5C 2530.06,63.2714 2562.23,31.2714 2594.5,-0.5C 2597.17,-0.5 2599.83,-0.5 2602.5,-0.5C 2569.7,32.7987 2536.7,65.9654 2503.5,99C 2516.72,146.696 2529.55,194.53 2542,242.5C 2542.39,243.428 2543.05,244.095 2544,244.5C 2591.67,257.5 2639.33,270.5 2687,283.5C 2723.5,248.333 2759.33,212.5 2794.5,176C 2781.88,127.698 2768.88,79.5309 2755.5,31.5C 2716.63,21.1196 2677.97,10.4529 2639.5,-0.5C 2647.17,-0.5 2654.83,-0.5 2662.5,-0.5C 2693.8,8.42701 2725.3,17.0937 2757,25.5C 2766.33,17.3406 2775.16,8.6739 2783.5,-0.5C 2786.17,-0.5 2788.83,-0.5 2791.5,-0.5C 2781.66,9.50686 2771.99,19.6735 2762.5,30C 2775.56,78.4178 2788.23,126.918 2800.5,175.5C 2848.99,187.883 2897.32,200.883 2945.5,214.5C 2963.82,197.509 2981.82,180.176 2999.5,162.5C 2999.5,165.167 2999.5,167.833 2999.5,170.5C 2982.7,186.798 2966.03,203.298 2949.5,220C 2962.83,269.638 2976.16,319.305 2989.5,369C 2963.33,396.334 2936.67,423.167 2909.5,449.5C 2920.26,453.441 2931.26,456.274 2942.5,458C 2961.37,438.965 2980.37,420.132 2999.5,401.5C 2999.5,404.5 2999.5,407.5 2999.5,410.5C 2981.52,427.812 2963.85,445.479 2946.5,463.5C 2959.64,511.41 2972.47,559.41 2985,607.5C 2989.68,609.378 2994.51,610.711 2999.5,611.5C 2999.5,613.833 2999.5,616.167 2999.5,618.5C 2994.93,616.977 2990.26,615.643 2985.5,614.5C 2982.39,616.439 2979.39,618.606 2976.5,621C 2912.14,685.694 2847.47,750.028 2782.5,814C 2795.07,860.45 2807.57,906.95 2820,953.5C 2821.28,957.097 2821.61,960.764 2821,964.5C 2784.81,1001.03 2748.31,1037.19 2711.5,1073C 2707.09,1073.15 2702.75,1072.48 2698.5,1071C 2659.98,1060.58 2621.48,1050.08 2583,1039.5C 2579.87,1042.63 2576.71,1045.79 2573.5,1049C 2564.56,1053.73 2555.73,1053.57 2547,1048.5C 2514.81,1079.27 2482.81,1110.27 2451,1141.5C 2401.19,1127.92 2351.36,1114.42 2301.5,1101C 2300.33,1100.5 2299.5,1099.67 2299,1098.5C 2285.51,1048.2 2272.51,997.871 2260,947.5C 2296.33,911.167 2332.67,874.833 2369,838.5C 2367.45,829.814 2365.45,821.147 2363,812.5C 2362.28,809.28 2361.12,806.28 2359.5,803.5C 2358.83,803.833 2358.17,804.167 2357.5,804.5C 2306.86,790.882 2256.36,776.882 2206,762.5C 2192.53,712.579 2179.36,662.579 2166.5,612.5C 2166.67,611.5 2166.83,610.5 2167,609.5C 2196.47,581.028 2225.64,552.195 2254.5,523C 2243.14,519.118 2231.64,515.618 2220,512.5C 2183.83,548.667 2147.67,584.833 2111.5,621C 2109.17,621.667 2106.83,621.667 2104.5,621C 2055.34,607.961 2006.34,594.461 1957.5,580.5C 1944.67,532.506 1931.83,484.506 1919,436.5C 1917.88,433.558 1917.54,430.558 1918,427.5C 1953.69,391.472 1989.69,355.805 2026,320.5C 2024.14,308.725 2021.47,297.059 2018,285.5C 2015.25,288.762 2012.08,291.429 2008.5,293.5C 1965.23,281.517 1921.9,269.851 1878.5,258.5C 1878.5,256.5 1878.5,254.5 1878.5,252.5C 1916.56,262.349 1954.56,272.516 1992.5,283C 1997.77,284.655 2003.11,285.655 2008.5,286C 2011.17,283.333 2013.83,280.667 2016.5,278C 2006.92,242.501 1997.25,207.001 1987.5,171.5C 1988,170.5 1988.5,169.5 1989,168.5C 2020.81,136.605 2052.81,104.938 2085,73.5C 2082.71,60.4982 2079.54,47.6648 2075.5,35C 2032.34,23.296 1989.34,11.4626 1946.5,-0.5 Z M 2100.5,66.5 C 2143.9,77.5179 2187.24,88.8512 2230.5,100.5C 2231.68,113.345 2238.68,120.679 2251.5,122.5C 2262.45,165.118 2273.78,207.618 2285.5,250C 2249.67,285.833 2213.83,321.667 2178,357.5C 2129.93,344.106 2081.76,330.94 2033.5,318C 2029.15,305.414 2025.98,292.581 2024,279.5C 2056,247.5 2088,215.5 2120,183.5C 2120.31,178.731 2119.65,174.065 2118,169.5C 2109.73,137.906 2101.23,106.406 2092.5,75C 2095.37,72.2972 2098.04,69.4639 2100.5,66.5 Z M 2086.5,80.5 C 2088.4,82.2688 2089.56,84.6021 2090,87.5C 2098.44,118.809 2106.44,150.142 2114,181.5C 2083.01,211.652 2052.18,241.986 2021.5,272.5C 2011.73,239.025 2002.89,205.358 1995,171.5C 2025.39,140.938 2055.89,110.605 2086.5,80.5 Z M 2798.5,182.5 C 2846.75,195.815 2895.09,208.981 2943.5,222C 2957.04,269.974 2970.04,318.141 2982.5,366.5C 2956.24,394.262 2929.41,421.596 2902,448.5C 2866.04,438.344 2830.04,428.344 2794,418.5C 2784.62,427.381 2775.12,436.048 2765.5,444.5C 2754.46,441.656 2743.46,438.656 2732.5,435.5C 2731.35,435.182 2730.52,434.516 2730,433.5C 2717.55,385.53 2704.72,337.696 2691.5,290C 2727.37,254.299 2763.03,218.465 2798.5,182.5 Z M 2471.5,434.5 C 2460.55,431.511 2449.55,429.011 2438.5,427C 2408.17,457.333 2377.83,487.667 2347.5,518C 2324.64,512.609 2301.81,506.775 2279,500.5C 2278.17,500.667 2277.33,500.833 2276.5,501C 2270.96,506.879 2265.12,512.379 2259,517.5C 2246.26,513.983 2233.59,510.316 2221,506.5C 2208.17,458.494 2195.33,410.494 2182.5,362.5C 2217.65,326.847 2252.99,291.347 2288.5,256C 2290.17,255.333 2291.83,255.333 2293.5,256C 2340.72,268.762 2387.88,281.595 2435,294.5C 2447.48,341.106 2459.65,387.773 2471.5,434.5 Z M 2029.5,324.5 C 2077.94,336.86 2126.27,349.693 2174.5,363C 2175.85,363.772 2176.68,364.939 2177,366.5C 2189.42,413.688 2201.92,460.855 2214.5,508C 2179.36,544.307 2143.69,580.14 2107.5,615.5C 2059.65,602.579 2011.82,589.579 1964,576.5C 1963.05,576.095 1962.39,575.428 1962,574.5C 1949.55,526.53 1936.72,478.696 1923.5,431C 1959.03,395.632 1994.37,360.132 2029.5,324.5 Z M 2794.5,425.5 C 2828.84,434.558 2863.18,443.724 2897.5,453C 2890.32,460.348 2882.99,467.515 2875.5,474.5C 2841.78,465.321 2808.12,455.988 2774.5,446.5C 2781.19,439.48 2787.85,432.48 2794.5,425.5 Z M 2440.5,432.5 C 2450.13,435.154 2459.8,437.82 2469.5,440.5C 2470.93,440.733 2471.43,441.4 2471,442.5C 2442.5,471 2414,499.5 2385.5,528C 2374.66,526.29 2363.99,523.623 2353.5,520C 2382.7,490.965 2411.7,461.799 2440.5,432.5 Z M 2477.5,443.5 C 2514.03,452.382 2550.36,462.049 2586.5,472.5C 2597.24,511.973 2607.91,551.473 2618.5,591C 2609.88,600.625 2600.88,609.958 2591.5,619C 2541.98,606.279 2492.48,593.112 2443,579.5C 2442.23,579.645 2441.56,579.978 2441,580.5C 2437.03,567.98 2433.37,555.314 2430,542.5C 2427.81,540.765 2425.31,539.598 2422.5,539C 2411.97,536.454 2401.64,533.454 2391.5,530C 2420.37,501.299 2449.03,472.465 2477.5,443.5 Z M 2768.5,451.5 C 2805.07,461.641 2841.73,471.141 2878.5,480C 2887,471.5 2895.5,463 2904,454.5C 2916.01,458.337 2928.18,461.671 2940.5,464.5C 2952.68,511.901 2965.18,559.234 2978,606.5C 2978.67,608.167 2978.67,609.833 2978,611.5C 2943.35,645.319 2908.85,679.319 2874.5,713.5C 2861.21,665.991 2848.37,618.324 2836,570.5C 2835.1,569.299 2833.93,568.465 2832.5,568C 2784.94,555.588 2737.61,542.588 2690.5,529C 2716.39,502.938 2742.39,477.105 2768.5,451.5 Z M 2278.5,506.5 C 2299.68,511.84 2320.68,517.673 2341.5,524C 2337.33,528.167 2333.17,532.333 2329,536.5C 2308.17,530.751 2287.34,524.917 2266.5,519C 2270.7,514.964 2274.7,510.798 2278.5,506.5 Z M 2260.5,524.5 C 2283.32,529.872 2305.99,535.872 2328.5,542.5C 2339.37,581.771 2350.03,621.104 2360.5,660.5C 2350.5,670.833 2340.5,681.167 2330.5,691.5C 2339.83,726.167 2349.17,760.833 2358.5,795.5C 2356.96,797.446 2354.96,797.946 2352.5,797C 2305.83,784.333 2259.17,771.667 2212.5,759C 2211.48,758.481 2210.82,757.647 2210.5,756.5C 2198.07,708.935 2185.4,661.435 2172.5,614C 2201.66,584.005 2230.99,554.172 2260.5,524.5 Z M 2347.5,525.5 C 2358.08,527.562 2368.42,530.395 2378.5,534C 2374.33,538.167 2370.17,542.333 2366,546.5C 2355.93,543.44 2345.76,540.606 2335.5,538C 2339.7,533.964 2343.7,529.798 2347.5,525.5 Z M 2385.5,535.5 C 2398.57,538.688 2411.57,542.188 2424.5,546C 2428.47,558.883 2432.14,571.883 2435.5,585C 2412.69,608.973 2389.36,632.473 2365.5,655.5C 2355.42,618.672 2345.42,581.838 2335.5,545C 2346.02,547.086 2356.52,549.586 2367,552.5C 2373.92,547.753 2380.08,542.086 2385.5,535.5 Z M 2689.5,535.5 C 2736.55,548.294 2783.55,561.294 2830.5,574.5C 2842.94,621.422 2855.6,668.255 2868.5,715C 2820.93,703.108 2773.6,690.274 2726.5,676.5C 2713.69,629.61 2701.36,582.61 2689.5,535.5 Z M 2682.5,536.5 C 2695.63,584.678 2708.63,633.012 2721.5,681.5C 2769.77,695.152 2818.11,708.652 2866.5,722C 2837.5,751 2808.5,780 2779.5,809C 2731.79,796.822 2684.13,784.156 2636.5,771C 2635.33,770.5 2634.5,769.667 2634,768.5C 2623.42,729.022 2612.92,689.522 2602.5,650C 2611.62,639.875 2621.12,630.042 2631,620.5C 2629.49,611.468 2627.83,602.468 2626,593.5C 2645.04,574.632 2663.87,555.632 2682.5,536.5 Z M 2443.5,586.5 C 2491.04,598.717 2538.37,611.551 2585.5,625C 2580.45,629.711 2575.79,634.711 2571.5,640C 2574.08,648.495 2576.25,656.995 2578,665.5C 2557.81,684.938 2537.81,704.604 2518,724.5C 2497.4,718.894 2476.9,713.06 2456.5,707C 2460.67,702.833 2464.83,698.667 2469,694.5C 2469.17,693.5 2469.33,692.5 2469.5,691.5C 2460.74,657.275 2451.74,623.108 2442.5,589C 2442.74,588.098 2443.08,587.265 2443.5,586.5 Z M 2436.5,593.5 C 2446.02,625.717 2455.02,658.217 2463.5,691C 2459.3,696.704 2454.3,701.538 2448.5,705.5C 2423.46,698.822 2398.46,691.989 2373.5,685C 2370.79,677.667 2368.96,670.167 2368,662.5C 2391.03,639.632 2413.87,616.632 2436.5,593.5 Z M 2619.5,599.5 C 2622.06,605.192 2624.06,611.192 2625.5,617.5C 2617.51,625.986 2609.35,634.319 2601,642.5C 2598.87,636.596 2597.03,630.596 2595.5,624.5C 2603.52,616.146 2611.52,607.813 2619.5,599.5 Z M 2589.5,629.5 C 2590.12,629.611 2590.62,629.944 2591,630.5C 2592.3,636.057 2593.8,641.557 2595.5,647C 2592.05,651.455 2588.21,655.622 2584,659.5C 2581.64,653.888 2579.8,648.055 2578.5,642C 2581.99,637.677 2585.66,633.51 2589.5,629.5 Z M 2596.5,654.5 C 2607.38,692.833 2618.04,731.333 2628.5,770C 2624.33,774.167 2620.17,778.333 2616,782.5C 2604.95,743.687 2594.95,704.687 2586,665.5C 2589.7,661.964 2593.2,658.298 2596.5,654.5 Z M 2361.5,667.5 C 2363.66,675.13 2366.32,682.63 2369.5,690C 2394.56,696.847 2419.56,703.847 2444.5,711C 2417.36,737.138 2390.53,763.638 2364,790.5C 2354.78,758.168 2345.95,725.668 2337.5,693C 2345.33,684.341 2353.33,675.841 2361.5,667.5 Z M 2579.5,671.5 C 2590.75,710.173 2600.92,749.173 2610,788.5C 2580.5,818 2551,847.5 2521.5,877C 2472.91,864.185 2424.24,851.351 2375.5,838.5C 2372.16,824.809 2368.99,811.143 2366,797.5C 2394.17,769.333 2422.33,741.167 2450.5,713C 2472.58,718.021 2494.58,723.687 2516.5,730C 2518.17,730.667 2519.83,730.667 2521.5,730C 2541.04,710.632 2560.37,691.132 2579.5,671.5 Z M 2631.5,776.5 C 2678.99,788.707 2726.33,801.54 2773.5,815C 2769.88,819.304 2765.71,822.804 2761,825.5C 2714.29,813.199 2667.79,800.366 2621.5,787C 2625.04,783.631 2628.37,780.131 2631.5,776.5 Z M 2615.5,792.5 C 2664.67,805.751 2713.84,819.085 2763,832.5C 2767.79,828.714 2772.29,824.547 2776.5,820C 2777.6,819.568 2778.27,820.068 2778.5,821.5C 2790.91,867.645 2803.24,913.812 2815.5,960C 2780.36,996.307 2744.69,1032.14 2708.5,1067.5C 2667.55,1056.18 2626.55,1045.01 2585.5,1034C 2584.62,1026.7 2582.12,1019.87 2578,1013.5C 2571.74,1008.53 2564.74,1005.53 2557,1004.5C 2546.24,963.95 2535.4,923.45 2524.5,883C 2554.73,852.605 2585.06,822.438 2615.5,792.5 Z M 2372.5,843.5 C 2421.09,856.813 2469.75,869.813 2518.5,882.5C 2529.34,924.196 2540.34,965.863 2551.5,1007.5C 2540.62,1013.29 2536.12,1022.29 2538,1034.5C 2539.64,1037.74 2540.64,1041.08 2541,1044.5C 2511.14,1074.69 2480.97,1104.53 2450.5,1134C 2403.46,1122.16 2356.46,1109.82 2309.5,1097C 2307.58,1096.64 2305.91,1095.81 2304.5,1094.5C 2291.85,1047.55 2279.35,1000.55 2267,953.5C 2266.33,951.833 2266.33,950.167 2267,948.5C 2302.67,913.993 2337.84,878.993 2372.5,843.5 Z"/></g>
<g><path style="opacity:0.933" fill="#c8c8c8" d="M 1010.5,76.5 C 1023.98,76.4817 1029.82,83.1484 1028,96.5C 1022.18,106.129 1014.34,108.295 1004.5,103C 998.896,96.8025 998.063,89.9692 1002,82.5C 1004.32,79.6047 1007.16,77.6047 1010.5,76.5 Z"/></g>
<g><path style="opacity:0.957" fill="#c8c8c8" d="M 1851.5,232.5 C 1853.83,232.5 1856.17,232.5 1858.5,232.5C 1870.12,234.125 1876.79,240.791 1878.5,252.5C 1878.5,254.5 1878.5,256.5 1878.5,258.5C 1873.42,275.376 1862.42,281.209 1845.5,276C 1831.63,266.941 1828.8,255.107 1837,240.5C 1840.77,235.893 1845.6,233.227 1851.5,232.5 Z"/></g>
<g><path style="opacity:0.936" fill="#c8c8c8" d="M 1558.5,341.5 C 1572.47,340.973 1578.64,347.64 1577,361.5C 1572.94,369.61 1566.44,372.443 1557.5,370C 1548.3,364.574 1546.13,357.074 1551,347.5C 1553.11,344.879 1555.61,342.879 1558.5,341.5 Z"/></g>
<g><path style="opacity:0.96" fill="#c8c8c8" d="M 1150.5,384.5 C 1151.5,386.167 1152.83,387.5 1154.5,388.5C 1161.45,397.838 1161.95,407.505 1156,417.5C 1146.6,427.281 1135.77,429.114 1123.5,423C 1118,418.823 1115,413.323 1114.5,406.5C 1114.5,404.5 1114.5,402.5 1114.5,400.5C 1117.08,388.426 1124.58,381.759 1137,380.5C 1141.78,380.986 1146.28,382.319 1150.5,384.5 Z"/></g>
<g><path style="opacity:0.186" fill="#4c4c4c" d="M 2022.5,731.5 C 2021.17,733.5 2019.5,735.167 2017.5,736.5C 2006.35,695.573 1995.35,654.573 1984.5,613.5C 1936.22,600.012 1887.88,586.679 1839.5,573.5C 1803.11,608.89 1767.44,644.89 1732.5,681.5C 1744.67,727.5 1756.83,773.5 1769,819.5C 1769.5,820.667 1770.33,821.5 1771.5,822C 1820.53,834.964 1869.36,848.464 1918,862.5C 1950.39,829.938 1982.89,797.605 2015.5,765.5C 2017.59,766.585 2018.92,768.251 2019.5,770.5C 1987.17,803.66 1954.34,836.326 1921,868.5C 1932.65,917.595 1945.48,966.428 1959.5,1015C 2007.76,1027.94 2055.93,1041.11 2104,1054.5C 2139.71,1018.63 2175.54,982.959 2211.5,947.5C 2198.34,899.21 2185.34,850.877 2172.5,802.5C 2131.99,790.874 2091.33,779.874 2050.5,769.5C 2051.08,767.251 2052.41,765.585 2054.5,764.5C 2095.49,774.955 2136.32,785.955 2177,797.5C 2191.44,848.278 2204.78,899.278 2217,950.5C 2182.17,985.333 2147.33,1020.17 2112.5,1055C 2109.99,1056.85 2107.49,1058.68 2105,1060.5C 2054.16,1046.96 2003.49,1032.96 1953,1018.5C 1917.57,1054.77 1881.4,1090.1 1844.5,1124.5C 1794.22,1111.13 1744.05,1097.46 1694,1083.5C 1679.87,1032.64 1666.53,981.636 1654,930.5C 1690.57,893.934 1727.07,857.434 1763.5,821C 1750.28,773.27 1737.78,725.436 1726,677.5C 1762.77,639.898 1800.27,603.231 1838.5,567.5C 1888.53,580.898 1938.53,594.398 1988.5,608C 2000.17,649.155 2011.5,690.321 2022.5,731.5 Z M 2050.5,769.5 C 2091.33,779.874 2131.99,790.874 2172.5,802.5C 2185.34,850.877 2198.34,899.21 2211.5,947.5C 2175.54,982.959 2139.71,1018.63 2104,1054.5C 2055.93,1041.11 2007.76,1027.94 1959.5,1015C 1945.48,966.428 1932.65,917.595 1921,868.5C 1954.34,836.326 1987.17,803.66 2019.5,770.5C 2030.05,777.354 2040.38,777.021 2050.5,769.5 Z M 1764.5,828.5 C 1767.3,830.888 1770.63,832.388 1774.5,833C 1820.17,845.333 1865.83,857.667 1911.5,870C 1912.67,870.5 1913.5,871.333 1914,872.5C 1926.65,919.086 1938.65,965.753 1950,1012.5C 1914.65,1048.01 1879.15,1083.35 1843.5,1118.5C 1797.59,1105.69 1751.59,1093.19 1705.5,1081C 1702.61,1080.5 1700.11,1079.33 1698,1077.5C 1686.67,1034.83 1675.33,992.167 1664,949.5C 1662.18,943.922 1661.18,938.255 1661,932.5C 1695.7,897.965 1730.2,863.299 1764.5,828.5 Z"/></g>
<g><path style="opacity:0.631" fill="#4b4c4b" d="M 2999.5,707.5 C 2999.5,709.5 2999.5,711.5 2999.5,713.5C 2983.03,708.381 2966.36,704.215 2949.5,701C 2914.17,736.333 2878.83,771.667 2843.5,807C 2856.42,855.166 2869.42,903.333 2882.5,951.5C 2921.27,962.944 2960.27,973.61 2999.5,983.5C 2999.5,985.833 2999.5,988.167 2999.5,990.5C 2959.57,979.464 2919.57,968.964 2879.5,959C 2843.79,994.373 2808.46,1030.04 2773.5,1066C 2786.12,1114.3 2799.12,1162.47 2812.5,1210.5C 2860.99,1224.29 2909.66,1237.12 2958.5,1249C 2972.03,1235.3 2985.7,1221.8 2999.5,1208.5C 2999.5,1211.5 2999.5,1214.5 2999.5,1217.5C 2985.36,1229.81 2972.02,1242.98 2959.5,1257C 2973.18,1306.7 2986.02,1356.54 2998,1406.5C 2961.47,1443.36 2924.64,1479.86 2887.5,1516C 2838.23,1503.47 2789.07,1490.3 2740,1476.5C 2708.83,1507.67 2677.67,1538.83 2646.5,1570C 2652.53,1580.65 2651.53,1590.65 2643.5,1600C 2634.25,1606.47 2624.58,1607.13 2614.5,1602C 2606.97,1596.43 2603.63,1588.93 2604.5,1579.5C 2561.72,1568.74 2519.22,1557.07 2477,1544.5C 2464.33,1497.17 2451.67,1449.83 2439,1402.5C 2437.72,1398.9 2437.39,1395.24 2438,1391.5C 2474.17,1355.33 2510.33,1319.17 2546.5,1283C 2550.24,1282.39 2553.9,1282.72 2557.5,1284C 2603.36,1296.42 2649.19,1308.92 2695,1321.5C 2732.15,1285.01 2769.32,1248.51 2806.5,1212C 2793.19,1163.1 2780.19,1114.1 2767.5,1065C 2767.67,1063.83 2767.83,1062.67 2768,1061.5C 2804.23,1025.27 2840.4,989.1 2876.5,953C 2862.94,903.269 2850.11,853.435 2838,803.5C 2875.14,767.361 2911.97,730.861 2948.5,694C 2965.63,697.763 2982.63,702.263 2999.5,707.5 Z M 2807.5,1218.5 C 2856.35,1231.21 2905.02,1244.55 2953.5,1258.5C 2966.27,1306.75 2979.27,1354.92 2992.5,1403C 2956.93,1439.24 2920.76,1474.74 2884,1509.5C 2835.88,1496.26 2787.71,1483.26 2739.5,1470.5C 2728.31,1426.77 2716.81,1383.1 2705,1339.5C 2703.34,1334.23 2702.34,1328.89 2702,1323.5C 2737.67,1288.99 2772.84,1253.99 2807.5,1218.5 Z M 2549.5,1288.5 C 2598.35,1301.21 2647.02,1314.55 2695.5,1328.5C 2708.58,1376.67 2721.58,1424.83 2734.5,1473C 2704.17,1503.33 2673.83,1533.67 2643.5,1564C 2639.6,1562.73 2635.6,1561.4 2631.5,1560C 2619.46,1558.77 2610.96,1563.6 2606,1574.5C 2564.94,1562.87 2523.77,1551.54 2482.5,1540.5C 2469.4,1492.37 2456.4,1444.21 2443.5,1396C 2478.66,1360.01 2513.99,1324.17 2549.5,1288.5 Z"/></g>
<g><path style="opacity:0.959" fill="#c8c8c8" d="M 2054.5,764.5 C 2052.41,765.585 2051.08,767.251 2050.5,769.5C 2040.38,777.021 2030.05,777.354 2019.5,770.5C 2018.92,768.251 2017.59,766.585 2015.5,765.5C 2009.67,755.328 2010.33,745.661 2017.5,736.5C 2019.5,735.167 2021.17,733.5 2022.5,731.5C 2032.72,727.23 2042.22,728.563 2051,735.5C 2058.12,744.421 2059.29,754.088 2054.5,764.5 Z"/></g>
<g><path style="opacity:0.933" fill="#c8c8c8" d="M 2162.5,1254.5 C 2178.81,1255.31 2183.97,1263.31 2178,1278.5C 2170.75,1285.23 2163.25,1285.73 2155.5,1280C 2148.38,1268.75 2150.72,1260.25 2162.5,1254.5 Z"/></g>
<g><path style="opacity:0.926" fill="#c8c8c8" d="M 2297.5,1272.5 C 2310.49,1271.66 2316.66,1277.66 2316,1290.5C 2311.68,1301.42 2304.18,1304.59 2293.5,1300C 2285.44,1292.93 2284.61,1285.09 2291,1276.5C 2293.31,1275.27 2295.48,1273.93 2297.5,1272.5 Z"/></g>
<g><path style="opacity:0.178" fill="#4b4c4b" d="M 2999.5,1634.5 C 2999.5,1637.17 2999.5,1639.83 2999.5,1642.5C 2991.85,1649.48 2984.52,1656.81 2977.5,1664.5C 2985.17,1691.87 2992.51,1719.2 2999.5,1746.5C 2999.5,1754.17 2999.5,1761.83 2999.5,1769.5C 2996.07,1758.7 2992.91,1747.7 2990,1736.5C 2955.17,1771.33 2920.33,1806.17 2885.5,1841C 2884.5,1841.17 2883.5,1841.33 2882.5,1841.5C 2832.36,1828.51 2782.36,1815.01 2732.5,1801C 2718.14,1750.74 2704.47,1700.24 2691.5,1649.5C 2691.67,1648.83 2691.83,1648.17 2692,1647.5C 2729.32,1611.01 2766.49,1574.35 2803.5,1537.5C 2853.88,1551.18 2904.22,1565.01 2954.5,1579C 2962.06,1605.02 2969.23,1631.19 2976,1657.5C 2983.7,1649.63 2991.54,1641.96 2999.5,1634.5 Z M 2803.5,1544.5 C 2852.31,1556.87 2900.98,1569.87 2949.5,1583.5C 2957.87,1610.16 2964.87,1637 2970.5,1664C 2976.9,1686.09 2982.73,1708.26 2988,1730.5C 2952.32,1765.51 2916.65,1800.51 2881,1835.5C 2832.7,1822.55 2784.53,1809.22 2736.5,1795.5C 2723.42,1747.33 2710.42,1699.17 2697.5,1651C 2733.03,1615.63 2768.37,1580.13 2803.5,1544.5 Z"/></g>
<g><path style="opacity:0.498" fill="#4c4c4c" d="M 1105.5,2017.5 C 1104.83,2019.17 1104.17,2020.83 1103.5,2022.5C 1062.77,2006.7 1022.11,1990.7 981.5,1974.5C 941.595,2004.9 902.095,2035.9 863,2067.5C 862.833,2068.67 862.667,2069.83 862.5,2071C 868.773,2113.47 874.773,2155.97 880.5,2198.5C 878.265,2198.79 876.265,2198.46 874.5,2197.5C 868.234,2154.47 861.734,2111.47 855,2068.5C 810.459,2050.81 765.959,2032.98 721.5,2015C 719.246,2013.85 716.913,2013.52 714.5,2014C 675.977,2044.69 637.31,2075.19 598.5,2105.5C 598.167,2106.67 597.833,2107.83 597.5,2109C 604.326,2157.95 611.659,2206.78 619.5,2255.5C 665.623,2273.98 711.789,2292.31 758,2310.5C 790.621,2286.1 822.787,2261.1 854.5,2235.5C 856.191,2236.86 857.858,2238.2 859.5,2239.5C 826.437,2266.06 792.937,2292.06 759,2317.5C 710.833,2298.33 662.667,2279.17 614.5,2260C 613.874,2259.25 613.374,2258.42 613,2257.5C 605.853,2207.47 598.52,2157.47 591,2107.5C 575.638,2100.88 560.138,2094.54 544.5,2088.5C 544.167,2089.33 543.833,2090.17 543.5,2091C 547.333,2117.17 551.167,2143.33 555,2169.5C 555.824,2172.88 555.657,2176.22 554.5,2179.5C 513.681,2211.74 472.681,2243.74 431.5,2275.5C 382.928,2255.96 334.428,2236.3 286,2216.5C 278.784,2167.49 271.617,2118.49 264.5,2069.5C 266.67,2071.09 269.004,2072.42 271.5,2073.5C 277.887,2120.21 284.554,2166.88 291.5,2213.5C 338.024,2231.68 384.524,2250.01 431,2268.5C 470.156,2238.01 509.322,2207.51 548.5,2177C 549.108,2175.77 549.441,2174.44 549.5,2173C 545.427,2144.15 541.26,2115.32 537,2086.5C 508.164,2073.84 478.997,2061.84 449.5,2050.5C 448.808,2049.97 448.308,2049.31 448,2048.5C 445.667,2032.17 443.333,2015.83 441,1999.5C 440.802,1996.3 439.969,1993.3 438.5,1990.5C 421.65,1983.28 404.65,1976.78 387.5,1971C 357.916,1993.95 328.582,2017.11 299.5,2040.5C 298.197,2038.86 296.864,2037.19 295.5,2035.5C 326.213,2011.39 357.046,1987.39 388,1963.5C 404.363,1970.46 420.863,1977.12 437.5,1983.5C 437.833,1982.83 438.167,1982.17 438.5,1981.5C 434.537,1953.42 430.203,1925.42 425.5,1897.5C 378.276,1878.59 331.11,1859.59 284,1840.5C 275.265,1788.35 267.931,1736.02 262,1683.5C 302.705,1651 343.705,1619 385,1587.5C 433.566,1606.47 482.066,1625.63 530.5,1645C 538.302,1695.78 545.968,1746.61 553.5,1797.5C 599.724,1816.07 645.89,1834.74 692,1853.5C 732.714,1821.12 773.714,1789.12 815,1757.5C 863.541,1776.85 912.041,1796.35 960.5,1816C 968.115,1866.8 975.782,1917.64 983.5,1968.5C 1024.19,1984.85 1064.86,2001.18 1105.5,2017.5 Z M 385.5,1593.5 C 432.046,1612.02 478.546,1630.69 525,1649.5C 532.595,1699 540.095,1748.5 547.5,1798C 507.656,1829.18 467.822,1860.35 428,1891.5C 381.524,1873.01 335.024,1854.68 288.5,1836.5C 281.333,1786.51 274.5,1736.51 268,1686.5C 307.145,1655.36 346.312,1624.36 385.5,1593.5 Z M 814.5,1764.5 C 861.25,1782.7 907.917,1801.2 954.5,1820C 959.551,1848.69 964.051,1877.52 968,1906.5C 971.328,1927.46 973.995,1948.46 976,1969.5C 936.772,2000.86 897.272,2031.86 857.5,2062.5C 811.276,2043.93 765.11,2025.26 719,2006.5C 711.508,1957.89 704.341,1909.22 697.5,1860.5C 697.833,1859.17 698.167,1857.83 698.5,1856.5C 737.498,1826.16 776.164,1795.49 814.5,1764.5 Z M 550.5,1803.5 C 597.177,1821.84 643.844,1840.17 690.5,1858.5C 698.039,1908.44 704.872,1958.44 711,2008.5C 671.848,2039.74 632.515,2070.74 593,2101.5C 576.094,2094.63 559.261,2087.63 542.5,2080.5C 539.7,2060.7 536.367,2041.03 532.5,2021.5C 503.003,2010.16 473.836,1998.16 445,1985.5C 440.973,1956.81 436.807,1928.15 432.5,1899.5C 432.39,1897.63 433.056,1896.13 434.5,1895C 473.418,1864.72 512.084,1834.22 550.5,1803.5 Z M 446.5,1993.5 C 473.474,2004.32 500.474,2015.15 527.5,2026C 531.119,2043.33 533.619,2060.83 535,2078.5C 508.264,2067.48 481.43,2056.64 454.5,2046C 451.046,2028.66 448.379,2011.16 446.5,1993.5 Z"/></g>
<g><path style="opacity:0.925" fill="#c8c8c8" d="M 1145.5,1731.5 C 1160.81,1730.64 1166.98,1737.64 1164,1752.5C 1158.2,1760.87 1150.7,1762.71 1141.5,1758C 1132.81,1747.61 1134.15,1738.78 1145.5,1731.5 Z"/></g>
<g><path style="opacity:0.957" fill="#c8c8c8" d="M 1129.5,2052.5 C 1127.5,2052.5 1125.5,2052.5 1123.5,2052.5C 1106.87,2049.2 1100.21,2039.2 1103.5,2022.5C 1104.17,2020.83 1104.83,2019.17 1105.5,2017.5C 1114.86,2005.59 1126.19,2003.42 1139.5,2011C 1151.49,2023.37 1151.49,2035.71 1139.5,2048C 1136.52,2050.33 1133.18,2051.83 1129.5,2052.5 Z"/></g>
<g><path style="opacity:0.958" fill="#c8c8c8" d="M 295.5,2035.5 C 296.864,2037.19 298.197,2038.86 299.5,2040.5C 305.444,2056.11 300.777,2067.28 285.5,2074C 280.748,2074.77 276.081,2074.61 271.5,2073.5C 269.004,2072.42 266.67,2071.09 264.5,2069.5C 257.12,2063.19 254.62,2055.19 257,2045.5C 262.46,2031.23 272.627,2026.06 287.5,2030C 290.621,2031.31 293.287,2033.14 295.5,2035.5 Z"/></g>
<g><path style="opacity:0.567" fill="#4b4c4b" d="M 1123.5,2052.5 C 1125.5,2052.5 1127.5,2052.5 1129.5,2052.5C 1135.56,2092.44 1141.4,2132.44 1147,2172.5C 1147.1,2175.45 1147.93,2178.12 1149.5,2180.5C 1188.55,2196.46 1227.71,2212.13 1267,2227.5C 1289.78,2210.4 1312.28,2192.9 1334.5,2175C 1335.33,2174.83 1336.17,2174.67 1337,2174.5C 1386.04,2193.36 1434.71,2213.02 1483,2233.5C 1490.18,2284.9 1497.68,2336.23 1505.5,2387.5C 1465.57,2420.14 1425.24,2452.3 1384.5,2484C 1381.54,2485.85 1378.54,2485.85 1375.5,2484C 1336,2468.17 1296.5,2452.33 1257,2436.5C 1235.4,2452.39 1214.23,2468.89 1193.5,2486C 1191.55,2487.63 1189.38,2488.8 1187,2489.5C 1137.9,2470.8 1089.23,2451.13 1041,2430.5C 1033.73,2379.45 1026.23,2328.45 1018.5,2277.5C 977.416,2260.25 936.083,2243.58 894.5,2227.5C 895.341,2225.62 895.675,2223.62 895.5,2221.5C 938.192,2238.01 980.692,2255.01 1023,2272.5C 1062.02,2241.31 1101.19,2210.31 1140.5,2179.5C 1141.65,2176.89 1141.82,2174.23 1141,2171.5C 1135.3,2131.77 1129.47,2092.1 1123.5,2052.5 Z M 1335.5,2181.5 C 1337.2,2181.34 1338.87,2181.51 1340.5,2182C 1385.42,2200.2 1430.42,2218.2 1475.5,2236C 1477.05,2237.44 1477.88,2239.27 1478,2241.5C 1485.33,2289.79 1491.99,2338.12 1498,2386.5C 1458.85,2417.74 1419.52,2448.74 1380,2479.5C 1340.78,2463.59 1301.61,2447.59 1262.5,2431.5C 1277.02,2419.81 1291.69,2408.31 1306.5,2397C 1308.56,2395.28 1310.22,2393.28 1311.5,2391C 1304,2339.84 1296.5,2288.67 1289,2237.5C 1284.25,2234.87 1279.41,2232.37 1274.5,2230C 1295.31,2214.35 1315.64,2198.18 1335.5,2181.5 Z M 1142.5,2185.5 C 1182.46,2200.31 1222.13,2215.98 1261.5,2232.5C 1246.98,2244.19 1232.31,2255.69 1217.5,2267C 1215.23,2268.77 1213.56,2270.93 1212.5,2273.5C 1220.05,2324.49 1227.55,2375.49 1235,2426.5C 1239.59,2429.37 1244.42,2431.87 1249.5,2434C 1228.33,2450.5 1207.17,2467 1186,2483.5C 1139.89,2464.74 1093.72,2446.07 1047.5,2427.5C 1039.66,2378.78 1032.33,2329.95 1025.5,2281C 1025.83,2279.83 1026.17,2278.67 1026.5,2277.5C 1065.5,2247.16 1104.16,2216.49 1142.5,2185.5 Z M 1267.5,2235.5 C 1272.3,2236.49 1276.96,2237.99 1281.5,2240C 1282.85,2240.77 1283.68,2241.94 1284,2243.5C 1290.8,2292.43 1297.97,2341.27 1305.5,2390C 1288.38,2402.79 1271.55,2415.95 1255,2429.5C 1250.57,2427.37 1246.07,2425.37 1241.5,2423.5C 1240.75,2422.62 1240.25,2421.62 1240,2420.5C 1233.11,2371.91 1225.94,2323.41 1218.5,2275C 1234.9,2261.81 1251.24,2248.65 1267.5,2235.5 Z"/></g>
<g><path style="opacity:0.933" fill="#c8c8c8" d="M 1369.5,2084.5 C 1382.98,2083.81 1389.15,2090.15 1388,2103.5C 1383.56,2112.98 1376.4,2115.82 1366.5,2112C 1359.92,2107.53 1357.75,2101.36 1360,2093.5C 1361.87,2089.01 1365.04,2086.01 1369.5,2084.5 Z"/></g>
<g><path style="opacity:0.958" fill="#c8c8c8" d="M 874.5,2197.5 C 876.265,2198.46 878.265,2198.79 880.5,2198.5C 890.673,2202.69 895.673,2210.36 895.5,2221.5C 895.675,2223.62 895.341,2225.62 894.5,2227.5C 889.844,2240.67 880.511,2245.84 866.5,2243C 863.826,2242.33 861.493,2241.16 859.5,2239.5C 857.858,2238.2 856.191,2236.86 854.5,2235.5C 846.694,2222.24 848.694,2210.74 860.5,2201C 864.851,2198.58 869.517,2197.41 874.5,2197.5 Z"/></g>
<g><path style="opacity:0.929" fill="#c8c8c8" d="M 96.5,2206.5 C 112.302,2206.77 117.802,2214.44 113,2229.5C 107.257,2235.6 100.423,2237.1 92.5,2234C 84.0409,2226.6 83.3743,2218.6 90.5,2210C 92.4319,2208.54 94.4319,2207.37 96.5,2206.5 Z"/></g>
<g><path style="opacity:0.571" fill="#4c4c4c" d="M 233.5,2776.5 C 232.197,2774.86 230.864,2773.19 229.5,2771.5C 261.394,2746.63 293.227,2721.63 325,2696.5C 319.087,2647.78 312.421,2599.11 305,2550.5C 304.727,2548.9 304.227,2547.4 303.5,2546C 257.167,2527.5 210.833,2509 164.5,2490.5C 124.977,2521.86 85.3102,2553.02 45.5,2584C 53.1548,2633.75 60.4882,2683.58 67.5,2733.5C 109.234,2749.63 150.9,2765.97 192.5,2782.5C 191.85,2784.44 191.517,2786.44 191.5,2788.5C 148.038,2771.85 104.871,2754.52 62,2736.5C 54.114,2684.47 46.9473,2632.47 40.5,2580.5C 81.1006,2547.63 122.267,2515.63 164,2484.5C 210.978,2502.6 257.812,2521.1 304.5,2540C 306.167,2540.67 307.833,2540.67 309.5,2540C 347.667,2509.83 385.833,2479.67 424,2449.5C 419.242,2414.53 414.575,2379.53 410,2344.5C 450.227,2311.97 490.727,2279.81 531.5,2248C 533.913,2247.52 536.246,2247.85 538.5,2249C 585.167,2267.67 631.833,2286.33 678.5,2305C 686.828,2354.29 694.328,2403.79 701,2453.5C 701.667,2456.5 701.667,2459.5 701,2462.5C 661.787,2494.05 622.287,2525.21 582.5,2556C 588.454,2591.01 593.287,2626.18 597,2661.5C 556.5,2693.33 516,2725.17 475.5,2757C 474.167,2757.67 472.833,2757.67 471.5,2757C 424.5,2738.17 377.5,2719.33 330.5,2700.5C 297.916,2725.61 265.583,2750.95 233.5,2776.5 Z M 533.5,2254.5 C 580.579,2272.64 627.579,2290.97 674.5,2309.5C 681.666,2359.49 688.499,2409.49 695,2459.5C 657.333,2489.17 619.667,2518.83 582,2548.5C 580.051,2533.52 577.551,2518.68 574.5,2504C 526.236,2484.69 478.07,2465.19 430,2445.5C 425.347,2412.93 420.514,2380.43 415.5,2348C 454.733,2316.59 494.066,2285.42 533.5,2254.5 Z M 431.5,2453.5 C 477.479,2471.82 523.479,2490.15 569.5,2508.5C 572.461,2522.89 574.461,2537.22 575.5,2551.5C 529.833,2533.33 484.167,2515.17 438.5,2497C 435.197,2482.72 432.864,2468.22 431.5,2453.5 Z M 424.5,2456.5 C 427.481,2471.18 430.148,2486.01 432.5,2501C 480.054,2520.28 527.721,2539.28 575.5,2558C 577.046,2559.44 577.879,2561.27 578,2563.5C 582.446,2594.34 586.946,2625.18 591.5,2656C 591.167,2656.83 590.833,2657.67 590.5,2658.5C 551.427,2689.58 512.094,2720.25 472.5,2750.5C 425.709,2732.52 379.209,2713.85 333,2694.5C 325.662,2644.82 318.662,2595.15 312,2545.5C 349.687,2515.97 387.187,2486.3 424.5,2456.5 Z"/></g>
<g><path style="opacity:0.926" fill="#c8c8c8" d="M 815.5,2403.5 C 828.497,2404 833.997,2410.66 832,2423.5C 826.902,2432.99 819.402,2435.49 809.5,2431C 801.5,2422.67 801.5,2414.33 809.5,2406C 811.611,2405.16 813.611,2404.32 815.5,2403.5 Z"/></g>
<g><path style="opacity:0.928" fill="#c8c8c8" d="M 1670.5,2421.5 C 1688.14,2421.29 1693.64,2429.29 1687,2445.5C 1680.8,2451.05 1673.96,2451.88 1666.5,2448C 1657.6,2437.56 1658.93,2428.73 1670.5,2421.5 Z"/></g>
<g><path style="opacity:0.922" fill="#c8c8c8" d="M 125.5,2449.5 C 140.535,2450.68 145.702,2458.35 141,2472.5C 131.933,2481.99 123.266,2481.65 115,2471.5C 111.35,2460.57 114.85,2453.24 125.5,2449.5 Z"/></g>
<g><path style="opacity:0.605" fill="#4c4c4c" d="M 1597.5,2999.5 C 1592.17,2999.5 1586.83,2999.5 1581.5,2999.5C 1568.7,2993.94 1555.7,2988.61 1542.5,2983.5C 1535.76,2988.85 1529.1,2994.19 1522.5,2999.5C 1519.5,2999.5 1516.5,2999.5 1513.5,2999.5C 1520.69,2992.82 1528.36,2986.65 1536.5,2981C 1526.72,2977.03 1516.89,2973.19 1507,2969.5C 1504.25,2970.59 1501.75,2972.09 1499.5,2974C 1488.98,2982.36 1478.64,2990.86 1468.5,2999.5C 1465.17,2999.5 1461.83,2999.5 1458.5,2999.5C 1473.87,2986.63 1489.71,2974.3 1506,2962.5C 1515.87,2966.4 1525.71,2970.4 1535.5,2974.5C 1535.83,2973.5 1536.17,2972.5 1536.5,2971.5C 1529.78,2924.45 1522.78,2877.45 1515.5,2830.5C 1469.28,2811.93 1423.11,2793.26 1377,2774.5C 1337.33,2805.83 1297.67,2837.17 1258,2868.5C 1263.93,2912.15 1270.09,2955.82 1276.5,2999.5C 1274.17,2999.5 1271.83,2999.5 1269.5,2999.5C 1263.82,2956.07 1257.48,2912.73 1250.5,2869.5C 1204.17,2850.83 1157.83,2832.17 1111.5,2813.5C 1072.09,2844.62 1032.59,2875.62 993,2906.5C 997.299,2937.43 1001.47,2968.43 1005.5,2999.5C 1003.5,2999.5 1001.5,2999.5 999.5,2999.5C 995.001,2967.51 990.834,2935.51 987,2903.5C 1027.5,2871.67 1068,2839.83 1108.5,2808C 1106.49,2796.57 1104.65,2785.07 1103,2773.5C 1099.93,2776.24 1096.6,2778.57 1093,2780.5C 1051.1,2763.92 1009.26,2747.26 967.5,2730.5C 967.205,2728.26 967.539,2726.26 968.5,2724.5C 1009.68,2740.73 1050.85,2757.06 1092,2773.5C 1095.77,2771.4 1099.27,2768.9 1102.5,2766C 1096.4,2729.3 1091.23,2692.47 1087,2655.5C 1123.17,2626.67 1159.33,2597.83 1195.5,2569C 1193.52,2556.5 1191.36,2544 1189,2531.5C 1142.67,2512.83 1096.33,2494.17 1050,2475.5C 1010.38,2506.12 971.046,2537.12 932,2568.5C 937.37,2612.92 943.536,2657.25 950.5,2701.5C 948.5,2701.5 946.5,2701.5 944.5,2701.5C 937.927,2656.82 931.26,2612.16 924.5,2567.5C 927.353,2563.81 930.686,2560.65 934.5,2558C 971.833,2528.67 1009.17,2499.33 1046.5,2470C 1048.5,2469.33 1050.5,2469.33 1052.5,2470C 1099.83,2489 1147.17,2508 1194.5,2527C 1196.76,2539.78 1198.92,2552.61 1201,2565.5C 1204.07,2562.76 1207.4,2560.43 1211,2558.5C 1252.56,2575.03 1294.06,2591.69 1335.5,2608.5C 1345.26,2591.78 1358.26,2588.62 1374.5,2599C 1384.51,2611.92 1383.51,2623.92 1371.5,2635C 1367.81,2637.35 1363.81,2638.85 1359.5,2639.5C 1365.7,2682.93 1372.37,2726.26 1379.5,2769.5C 1426.74,2788.37 1473.9,2807.37 1521,2826.5C 1528.61,2876.12 1535.95,2925.79 1543,2975.5C 1543.37,2976.42 1543.87,2977.25 1544.5,2978C 1562.39,2984.9 1580.05,2992.07 1597.5,2999.5 Z M 1210.5,2565.5 C 1251.96,2581.43 1293.29,2597.77 1334.5,2614.5C 1334.83,2626.82 1340.83,2634.82 1352.5,2638.5C 1359.81,2681.67 1366.48,2725.01 1372.5,2768.5C 1369.67,2772.16 1366.34,2775.33 1362.5,2778C 1326.02,2806.31 1289.69,2834.81 1253.5,2863.5C 1206.75,2844.98 1160.25,2825.98 1114,2806.5C 1112.4,2794.46 1110.57,2782.46 1108.5,2770.5C 1109.95,2768.54 1111.62,2766.71 1113.5,2765C 1148,2737.83 1182.5,2710.67 1217,2683.5C 1212.49,2646.95 1207.33,2610.45 1201.5,2574C 1204.09,2570.71 1207.09,2567.88 1210.5,2565.5 Z M 1194.5,2577.5 C 1196.12,2578.59 1196.95,2580.26 1197,2582.5C 1201.47,2615.1 1206.3,2647.6 1211.5,2680C 1177.17,2707.17 1142.83,2734.33 1108.5,2761.5C 1102.45,2727.3 1097.28,2692.97 1093,2658.5C 1126.81,2631.36 1160.65,2604.36 1194.5,2577.5 Z"/></g>
<g><path style="opacity:0.47" fill="#4c4c4c" d="M 2114.5,2554.5 C 2114.3,2556.69 2113.63,2558.69 2112.5,2560.5C 2072.18,2544.5 2031.85,2528.5 1991.5,2512.5C 1990.06,2512.72 1988.73,2513.22 1987.5,2514C 1949.33,2544.17 1911.17,2574.33 1873,2604.5C 1878.97,2654.61 1885.97,2704.61 1894,2754.5C 1940.65,2773.75 1987.48,2792.25 2034.5,2810C 2073.55,2778.62 2112.88,2747.62 2152.5,2717C 2145.94,2674.56 2139.6,2632.06 2133.5,2589.5C 2135.5,2589.5 2137.5,2589.5 2139.5,2589.5C 2145.69,2632.34 2152.02,2675.17 2158.5,2718C 2157.22,2720.28 2155.56,2722.28 2153.5,2724C 2114.38,2754.12 2075.55,2784.62 2037,2815.5C 2043.28,2866.6 2050.44,2917.6 2058.5,2968.5C 2057.02,2970.48 2055.35,2972.32 2053.5,2974C 2042.36,2981.98 2031.69,2990.48 2021.5,2999.5C 2018.17,2999.5 2014.83,2999.5 2011.5,2999.5C 2024.25,2988.95 2037.25,2978.61 2050.5,2968.5C 2050.83,2967.17 2051.17,2965.83 2051.5,2964.5C 2044.41,2915.5 2037.41,2866.5 2030.5,2817.5C 1983.98,2799.32 1937.48,2780.99 1891,2762.5C 1850.73,2793.06 1810.9,2824.22 1771.5,2856C 1778.91,2903.74 1785.91,2951.57 1792.5,2999.5C 1790.5,2999.5 1788.5,2999.5 1786.5,2999.5C 1779.71,2951.5 1772.88,2903.5 1766,2855.5C 1720.38,2836.61 1674.55,2818.11 1628.5,2800C 1626.41,2799.21 1624.58,2798.04 1623,2796.5C 1615.87,2745.23 1608.37,2694.07 1600.5,2643C 1601.13,2642.25 1601.63,2641.42 1602,2640.5C 1642.76,2607.89 1683.93,2575.89 1725.5,2544.5C 1772.64,2563.27 1819.8,2581.93 1867,2600.5C 1867.83,2600.33 1868.67,2600.17 1869.5,2600C 1909.41,2568.13 1949.58,2536.63 1990,2505.5C 2031.42,2522.14 2072.92,2538.47 2114.5,2554.5 Z M 1724.5,2551.5 C 1771.34,2569.25 1818.01,2587.58 1864.5,2606.5C 1865.25,2607.38 1865.75,2608.38 1866,2609.5C 1872.94,2658.22 1880.1,2706.89 1887.5,2755.5C 1848.05,2787.13 1808.22,2818.13 1768,2848.5C 1721.65,2830.66 1675.48,2812.33 1629.5,2793.5C 1621.16,2743.65 1614,2693.65 1608,2643.5C 1646.99,2612.93 1685.83,2582.27 1724.5,2551.5 Z"/></g>
<g><path style="opacity:0.955" fill="#c8c8c8" d="M 2139.5,2589.5 C 2137.5,2589.5 2135.5,2589.5 2133.5,2589.5C 2116.84,2586.84 2109.84,2577.17 2112.5,2560.5C 2113.63,2558.69 2114.3,2556.69 2114.5,2554.5C 2126.57,2540.72 2139.41,2540.06 2153,2552.5C 2159.85,2564.18 2158.68,2575.01 2149.5,2585C 2146.53,2587.32 2143.2,2588.82 2139.5,2589.5 Z"/></g>
<g><path style="opacity:0.957" fill="#c8c8c8" d="M 944.5,2701.5 C 946.5,2701.5 948.5,2701.5 950.5,2701.5C 961.503,2705.14 967.503,2712.81 968.5,2724.5C 967.539,2726.26 967.205,2728.26 967.5,2730.5C 962.681,2743.42 953.348,2748.92 939.5,2747C 925.835,2741.84 920.335,2732.01 923,2717.5C 926.808,2707.68 933.975,2702.34 944.5,2701.5 Z"/></g>
<g><path style="opacity:0.956" fill="#c8c8c8" d="M 229.5,2771.5 C 230.864,2773.19 232.197,2774.86 233.5,2776.5C 240.872,2791.51 237.205,2803.01 222.5,2811C 203.895,2814.71 193.561,2807.21 191.5,2788.5C 191.517,2786.44 191.85,2784.44 192.5,2782.5C 197.169,2769.32 206.502,2764.16 220.5,2767C 223.806,2767.99 226.806,2769.49 229.5,2771.5 Z"/></g>
<g><path style="opacity:0.934" fill="#c8c8c8" d="M 638.5,2776.5 C 653.86,2776.35 659.694,2783.69 656,2798.5C 651.532,2805.08 645.365,2807.25 637.5,2805C 628.878,2800.14 626.378,2792.97 630,2783.5C 632.441,2780.55 635.275,2778.21 638.5,2776.5 Z"/></g>
<g><path style="opacity:0.411" fill="#4b4c4b" d="M 2582.5,2999.5 C 2580.5,2999.5 2578.5,2999.5 2576.5,2999.5C 2574.53,2982.18 2571.86,2965.02 2568.5,2948C 2522.17,2929.5 2475.83,2911 2429.5,2892.5C 2389.83,2923.67 2350.17,2954.83 2310.5,2986C 2311.67,2990.39 2312.34,2994.89 2312.5,2999.5C 2310.5,2999.5 2308.5,2999.5 2306.5,2999.5C 2306.21,2994.62 2305.55,2989.79 2304.5,2985C 2304.44,2983.29 2305.11,2981.96 2306.5,2981C 2347.06,2948.8 2387.9,2916.97 2429,2885.5C 2477.11,2904.93 2525.28,2924.26 2573.5,2943.5C 2574.19,2944.03 2574.69,2944.69 2575,2945.5C 2577.64,2963.49 2580.14,2981.49 2582.5,2999.5 Z"/></g>
<g><path style="opacity:0.907" fill="#4b4c4b" d="M 2228.5,2999.5 C 2222.83,2999.5 2217.17,2999.5 2211.5,2999.5C 2184.8,2988.41 2157.96,2977.41 2131,2966.5C 2124.58,2973.96 2116.41,2977.46 2106.5,2977C 2096.98,2984.36 2087.65,2991.86 2078.5,2999.5C 2075.17,2999.5 2071.83,2999.5 2068.5,2999.5C 2078.69,2990.48 2089.36,2981.98 2100.5,2974C 2091.07,2967.64 2087.24,2958.8 2089,2947.5C 2094.12,2933.85 2103.95,2928.35 2118.5,2931C 2126.77,2933.6 2131.93,2939.1 2134,2947.5C 2134.29,2952.29 2134.46,2956.95 2134.5,2961.5C 2166.01,2974 2197.35,2986.66 2228.5,2999.5 Z"/></g>
<g><path style="opacity:0.722" fill="#4b4c4b" d="M 1866.5,2999.5 C 1861.83,2999.5 1857.17,2999.5 1852.5,2999.5C 1857.06,2995.69 1861.73,2995.69 1866.5,2999.5 Z"/></g>
</svg>
